<svg width="24" height="24" viewBox="0 0 24 24" fill="none" xmlns="http://www.w3.org/2000/svg">
<path d="M20.572 15C19.029 15 18.857 13.8 18.857 13.285V9.00001C18.857 5.22801 15.772 2.14301 12 2.14301C8.23001 2.14301 5.14301 5.22801 5.14301 9.00001V13.285C5.14301 13.8 4.97201 15 3.42901 15C3.20196 15.0008 2.98444 15.0913 2.82389 15.2519C2.66334 15.4124 2.5728 15.63 2.57201 15.857V18.428C2.5728 18.6551 2.66334 18.8726 2.82389 19.0331C2.98444 19.1937 3.20196 19.2842 3.42901 19.285H9.42901C9.43085 19.9664 9.70229 20.6194 10.184 21.1013C10.6657 21.5832 11.3186 21.8549 12 21.857C12.6816 21.8552 13.3347 21.5836 13.8166 21.1016C14.2986 20.6197 14.5702 19.9666 14.572 19.285H20.572C20.7991 19.2842 21.0166 19.1937 21.1771 19.0331C21.3377 18.8726 21.4282 18.6551 21.429 18.428V15.857C21.4282 15.63 21.3377 15.4124 21.1771 15.2519C21.0166 15.0913 20.7991 15.0008 20.572 15ZM12 20.143C11.7728 20.1422 11.5551 20.0515 11.3945 19.8908C11.234 19.73 11.1435 19.5122 11.143 19.285H12.857C12.8565 19.5122 12.7661 19.73 12.6055 19.8908C12.4449 20.0515 12.2272 20.1422 12 20.143ZM19.714 17.571H4.28601V16.628C6.04301 16.285 6.85701 14.785 6.85701 13.285V9.00001C6.85701 6.17101 9.17201 3.85701 12 3.85701C14.829 3.85701 17.143 6.17101 17.143 9.00001V13.285C17.143 14.785 17.957 16.285 19.714 16.628V17.571Z" fill="#0E0F0C"/>
</svg>
