<svg width="24" height="24" viewBox="0 0 24 24" fill="none" xmlns="http://www.w3.org/2000/svg">
<path fill-rule="evenodd" clip-rule="evenodd" d="M21.424 4.71399C21.9 4.71399 22.286 5.09999 22.286 5.57599V11.999C22.286 12.236 22.086 12.423 21.871 12.525C21.7118 12.6027 21.5702 12.7123 21.455 12.847C21.3108 13.0142 21.1989 13.2069 21.125 13.415C21.0415 13.6486 20.9992 13.8949 21 14.143C21 14.398 21.044 14.645 21.126 14.871C21.207 15.096 21.322 15.287 21.454 15.438C21.586 15.588 21.73 15.694 21.871 15.761C22.074 15.857 22.264 16.029 22.284 16.247H22.286V18.853C22.286 18.9661 22.2637 19.0782 22.2204 19.1827C22.177 19.2872 22.1135 19.3822 22.0335 19.4622C21.9534 19.5421 21.8584 19.6055 21.7538 19.6487C21.6492 19.6919 21.5371 19.7141 21.424 19.714H2.57599C2.46284 19.7141 2.35077 19.6919 2.24619 19.6487C2.14161 19.6055 2.04658 19.5421 1.96652 19.4622C1.88647 19.3822 1.82296 19.2872 1.77962 19.1827C1.73629 19.0782 1.71399 18.9661 1.71399 18.853V5.57599C1.71399 5.09999 2.09999 4.71399 2.57599 4.71399H21.424ZM20.571 16.956V18H3.42799V6.42899H20.571V11.329C20.4239 11.4465 20.2877 11.577 20.164 11.719C19.886 12.037 19.664 12.415 19.514 12.831C19.364 13.247 19.286 13.693 19.286 14.143C19.286 14.593 19.363 15.039 19.514 15.455C19.664 15.871 19.886 16.249 20.164 16.567C20.29 16.711 20.426 16.841 20.571 16.957V16.956ZM5.57099 11.143H8.14299V9.42899H5.56999L5.57099 11.143Z" fill="#0E0F0C"/>
</svg>
