<svg width="24" height="24" viewBox="0 0 24 24" fill="none" xmlns="http://www.w3.org/2000/svg">
<path fill-rule="evenodd" clip-rule="evenodd" d="M9.417 7.714H11.143V6C11.143 5.66151 11.0428 5.33061 10.855 5.04901C10.6671 4.76741 10.4002 4.54772 10.0877 4.41765C9.77517 4.28757 9.43116 4.25294 9.099 4.31811C8.76685 4.38327 8.46143 4.54533 8.22125 4.78384C7.98108 5.02235 7.81689 5.32663 7.74941 5.65832C7.68193 5.99001 7.71416 6.33425 7.84205 6.64764C7.96994 6.96104 8.18776 7.22955 8.46804 7.41932C8.74833 7.60909 9.07852 7.71163 9.417 7.714ZM12.857 7.714V6C12.857 5.66151 12.9572 5.33061 13.1451 5.04901C13.3329 4.76741 13.5998 4.54772 13.9123 4.41765C14.2248 4.28757 14.5688 4.25294 14.901 4.31811C15.2331 4.38327 15.5386 4.54533 15.7787 4.78384C16.0189 5.02235 16.1831 5.32663 16.2506 5.65832C16.3181 5.99001 16.2858 6.33425 16.1579 6.64764C16.0301 6.96104 15.8122 7.22955 15.532 7.41932C15.2517 7.60909 14.9215 7.71163 14.583 7.714H12.857ZM17.541 7.714C17.9653 6.97758 18.1009 6.10985 17.9217 5.27908C17.7424 4.44832 17.261 3.71372 16.5709 3.21775C15.8807 2.72177 15.031 2.49977 14.1864 2.59479C13.3419 2.6898 12.5627 3.09507 12 3.732C11.4377 3.09383 10.6582 2.68744 9.813 2.59177C8.96781 2.4961 8.11724 2.71798 7.42647 3.2143C6.73571 3.71063 6.25406 4.44597 6.07509 5.27751C5.89612 6.10906 6.03259 6.97744 6.458 7.714H3.861C3.74785 7.714 3.63581 7.7363 3.53128 7.77963C3.42675 7.82296 3.33179 7.88647 3.25183 7.96653C3.17186 8.04659 3.10846 8.14162 3.06525 8.2462C3.02204 8.35078 2.99987 8.46284 3 8.576V12.424C3 12.9 3.386 13.286 3.861 13.286H4.286V20.567C4.286 21.043 4.671 21.429 5.147 21.429H18.853C18.9662 21.429 19.0782 21.4067 19.1827 21.3634C19.2872 21.32 19.3822 21.2565 19.4622 21.1765C19.5421 21.0964 19.6055 21.0014 19.6487 20.8968C19.692 20.7922 19.7141 20.6801 19.714 20.567V13.286H20.139C20.2522 13.286 20.3642 13.2637 20.4687 13.2204C20.5732 13.177 20.6682 13.1135 20.7482 13.0335C20.8281 12.9534 20.8915 12.8584 20.9347 12.7538C20.978 12.6492 21.0001 12.5371 21 12.424V8.576C21.0001 8.46284 20.978 8.35078 20.9347 8.2462C20.8915 8.14162 20.8281 8.04659 20.7482 7.96653C20.6682 7.88647 20.5732 7.82296 20.4687 7.77963C20.3642 7.7363 20.2522 7.714 20.139 7.714H17.541ZM14.587 9.43H19.286V11.572H4.714V9.43H14.587ZM6 13.286H18V19.714H12.857V13.286H11.143V19.714H6V13.286Z" fill="#0E0F0C"/>
</svg>
