<svg width="24" height="24" viewBox="0 0 24 24" fill="none" xmlns="http://www.w3.org/2000/svg">
<path d="M22.971 13.287L12.514 2.829C12.4366 2.7478 12.3435 2.68316 12.2403 2.63899C12.1372 2.59483 12.0262 2.57205 11.914 2.57205C11.8018 2.57205 11.6908 2.59483 11.5876 2.63899C11.4845 2.68316 11.3914 2.7478 11.314 2.829L0.856995 13.287L2.05699 14.487L4.19999 12.344V20.572C4.20079 20.799 4.29133 21.0166 4.45188 21.1771C4.61243 21.3377 4.82995 21.4282 5.05699 21.429H18.772C18.999 21.4282 19.2166 21.3377 19.3771 21.1771C19.5377 21.0166 19.6282 20.799 19.629 20.572V12.344L21.771 14.487L22.971 13.287ZM17.914 19.715H5.91399V10.63L11.914 4.63L17.914 10.63V19.715Z" fill="#0E0F0C"/>
</svg>
