<svg width="24" height="24" viewBox="0 0 24 24" fill="none" xmlns="http://www.w3.org/2000/svg">
<path fill-rule="evenodd" clip-rule="evenodd" d="M4.28599 11.144H10.286C10.513 11.1432 10.7306 11.0527 10.8911 10.8921C11.0517 10.7316 11.1422 10.514 11.143 10.287V4.28699C11.1422 4.05995 11.0517 3.84242 10.8911 3.68188C10.7306 3.52133 10.513 3.43078 10.286 3.42999H4.28599C4.05894 3.43078 3.84142 3.52133 3.68087 3.68188C3.52032 3.84242 3.42978 4.05995 3.42899 4.28699V10.287C3.42978 10.514 3.52032 10.7316 3.68087 10.8921C3.84142 11.0527 4.05894 11.1432 4.28599 11.144ZM9.42899 9.42999H5.14299V5.14399H9.42899V9.42999ZM13.714 11.144H19.714C19.9412 11.1435 20.159 11.053 20.3197 10.8925C20.4805 10.7319 20.5712 10.5142 20.572 10.287V4.28699C20.5712 4.05995 20.4806 3.84242 20.3201 3.68188C20.1596 3.52133 19.942 3.43078 19.715 3.42999H13.715C13.4878 3.43052 13.27 3.52095 13.1092 3.68152C12.9485 3.8421 12.8578 4.05977 12.857 4.28699V10.287C12.8578 10.514 12.9483 10.7316 13.1089 10.8921C13.2694 11.0527 13.4869 11.1432 13.714 11.144ZM18.857 9.42999H14.572V5.14399H18.857V9.42999ZM10.286 20.572H4.28599C4.05894 20.5712 3.84142 20.4807 3.68087 20.3201C3.52032 20.1596 3.42978 19.942 3.42899 19.715V13.715C3.42951 13.4878 3.51994 13.27 3.68052 13.1092C3.84109 12.9485 4.05877 12.8578 4.28599 12.857H10.286C10.5132 12.8578 10.7309 12.9485 10.8915 13.1092C11.052 13.27 11.1425 13.4878 11.143 13.715V19.715C11.1422 19.942 11.0517 20.1596 10.8911 20.3201C10.7306 20.4807 10.513 20.5712 10.286 20.572ZM5.14299 18.857H9.42899V14.572H5.14299V18.857ZM13.715 20.572H19.715C19.942 20.5712 20.1596 20.4807 20.3201 20.3201C20.4806 20.1596 20.5712 19.942 20.572 19.715V13.715C20.5715 13.4878 20.481 13.27 20.3205 13.1092C20.1599 12.9485 19.9422 12.8578 19.715 12.857H13.715C13.4876 12.8575 13.2697 12.9481 13.1089 13.1089C12.9481 13.2697 12.8575 13.4876 12.857 13.715V19.715C12.8578 19.9422 12.9485 20.1599 13.1092 20.3205C13.27 20.481 13.4878 20.5715 13.715 20.572ZM18.857 18.857H14.572V14.572H18.857V18.857Z" fill="#0E0F0C"/>
</svg>
