<svg width="24" height="24" viewBox="0 0 24 24" fill="none" xmlns="http://www.w3.org/2000/svg">
<path d="M17.186 12.3C17.8401 11.8228 18.3716 11.1971 18.7367 10.4744C19.1018 9.75173 19.29 8.95267 19.286 8.143C19.286 5.314 16.97 3 14.143 3C13.2403 3.00194 12.3538 3.24031 11.5718 3.69139C10.7898 4.14247 10.1396 4.79051 9.68601 5.571C6.94301 5.657 4.71401 7.929 4.71401 10.714C4.71401 12.429 5.52901 13.929 6.81401 14.871C5.66675 15.4312 4.7005 16.3032 4.02595 17.3872C3.3514 18.4712 2.99584 19.7233 3.00001 21H4.71401C4.71401 18.986 5.91401 17.229 7.58601 16.371C8.22901 16.071 8.91401 15.857 9.68601 15.857H9.85701C12.686 15.857 15 18.171 15 21H16.714C16.714 18.3 15.171 15.986 12.9 14.871C13.468 14.4375 13.9479 13.8996 14.314 13.286C17.057 13.371 19.286 15.643 19.286 18.429H21C21 15.729 19.457 13.414 17.186 12.3ZM8.91401 14.014C7.50001 13.586 6.43001 12.3 6.43001 10.714C6.43001 9.086 7.54401 7.757 9.04401 7.371C9.30101 7.329 9.55801 7.286 9.85801 7.286C10.201 7.286 10.501 7.329 10.801 7.414C12.258 7.843 13.287 9.129 13.287 10.714C13.287 10.971 13.244 11.186 13.201 11.443C12.858 12.986 11.487 14.143 9.85801 14.143C9.51501 14.143 9.21501 14.1 8.91501 14.014H8.91401ZM14.957 11.486C15 11.229 15 10.971 15 10.714C15 8.486 13.586 6.6 11.571 5.871C11.891 5.50412 12.2865 5.21077 12.7304 5.01106C13.1743 4.81135 13.6562 4.71002 14.143 4.714C15.0514 4.7169 15.9218 5.07913 16.5641 5.7216C17.2064 6.36406 17.5684 7.23456 17.571 8.143C17.571 9.771 16.457 11.1 14.957 11.486Z" fill="#0E0F0C"/>
</svg>
