<svg width="16" height="16" viewBox="0 0 16 16" fill="none" xmlns="http://www.w3.org/2000/svg">
<path d="M13.8573 13.0287L11.1713 10.3427C11.886 9.45733 12.286 8.34267 12.286 7.14267C12.286 4.314 9.97133 2 7.14267 2C4.314 2 2 4.314 2 7.14267C2 9.97133 4.314 12.286 7.14267 12.286C8.34267 12.286 9.45733 11.8573 10.3427 11.1713L13.0287 13.8573L13.8573 13.0287ZM7.17133 11.1427C4.97133 11.1427 3.17133 9.34267 3.17133 7.14267C3.17133 4.94267 4.97133 3.14267 7.17133 3.14267C9.37133 3.14267 11.1713 4.94267 11.1713 7.14267C11.1713 9.34267 9.37133 11.1427 7.17133 11.1427Z" fill="#0E0F0C"/>
</svg>
