<svg width="48" height="48" viewBox="0 0 48 48" fill="none" xmlns="http://www.w3.org/2000/svg">
<g clip-path="url(#clip0_2_531)">
<mask id="mask0_2_531" style="mask-type:luminance" maskUnits="userSpaceOnUse" x="0" y="0" width="48" height="48">
<path d="M48 0H0V48H48V0Z" fill="white"/>
</mask>
<g mask="url(#mask0_2_531)">
<mask id="mask1_2_531" style="mask-type:luminance" maskUnits="userSpaceOnUse" x="0" y="0" width="48" height="48">
<path d="M24 48C37.2548 48 48 37.2548 48 24C48 10.7452 37.2548 0 24 0C10.7452 0 0 10.7452 0 24C0 37.2548 10.7452 48 24 48Z" fill="white"/>
</mask>
<g mask="url(#mask1_2_531)">
<path d="M48 0H0V48H48V0Z" fill="#231D9A"/>
<path d="M11.9646 32.0049L7.96948 36L11.9646 39.9951L15.9597 36L11.9646 32.0049Z" fill="white"/>
<path d="M29.0356 14.9902L26.5254 17.5005L29.0356 20.0107L31.5458 17.5005L29.0356 14.9902Z" fill="white"/>
<path d="M36.0353 6.9904L33.5251 9.50062L36.0353 12.0108L38.5456 9.50062L36.0353 6.9904Z" fill="white"/>
<path d="M36.0353 34.9898L33.5251 37.5L36.0353 40.0102L38.5456 37.5L36.0353 34.9898Z" fill="white"/>
<path d="M42.0353 13.9901L39.5251 16.5004L42.0353 19.0106L44.5456 16.5004L42.0353 13.9901Z" fill="white"/>
<path d="M38.0006 21.0158L36.5156 22.5007L38.0006 23.9857L39.4855 22.5007L38.0006 21.0158Z" fill="white"/>
<mask id="mask2_2_531" style="mask-type:luminance" maskUnits="userSpaceOnUse" x="0" y="0" width="24" height="21">
<path d="M23.025 0H0V21H23.025V0Z" fill="white"/>
</mask>
<g mask="url(#mask2_2_531)">
<path d="M8.86492 6.62539V6.38579L-1.67676 -0.562134C-2.15811 0.0341641 -2.74617 0.701445 -3.11426 1.35453L5.03157 6.62537L8.86492 6.62539Z" fill="#F0263C"/>
<path d="M8.6259 5.28361L-0.454621 -0.729979C-0.670246 -0.490395 -0.885869 -0.250812 -1.07754 -0.0112286L8.64983 6.40965V6.62528H5.46338L-2.15566 1.59398C-2.29942 1.88148 -2.44316 2.16898 -2.58691 2.45648L3.73838 6.62528H2.04932H-0.2869C-0.358776 6.93673 -0.430651 7.24819 -0.478567 7.58363H9.58418V-2.47888C9.24878 -2.43096 8.9373 -2.35908 8.62583 -2.28721L8.6259 5.28361Z" fill="white"/>
<path d="M-0.478688 11.417C-0.430771 11.7524 -0.358896 12.0639 -0.287021 12.3753H3.73826L-2.68286 16.6399C-2.56307 16.9273 -2.41932 17.2148 -2.25161 17.5024L5.46326 12.3753H8.62575V12.567L-1.19744 19.0836C-1.00578 19.3471 -0.790154 19.5867 -0.574527 19.8023L8.62575 13.717V21.0481C8.93723 21.1201 9.2487 21.1919 9.5841 21.2398V13.0701V11.9201V11.417H-0.478688Z" fill="white"/>
<path d="M23.4793 7.5837C23.4313 7.24827 23.3595 6.93681 23.2876 6.62535H19.263L24.6772 3.0316C24.5334 2.74411 24.4136 2.4566 24.2459 2.1691L17.5381 6.62535H14.3755V6.43369L23.9105 0.156591C23.7188 -0.10695 23.5032 -0.346534 23.2876 -0.562159L14.3755 5.28369V-2.23925C14.0641 -2.31112 13.7527 -2.38299 13.4172 -2.43091V5.93056V7.08056V7.5837H23.4793Z" fill="white"/>
<path d="M13.4172 11.417L13.4172 21.4794C13.7527 21.4315 14.064 21.3596 14.3755 21.2878V13.717L23.0959 19.3231C23.3115 19.0836 23.5272 18.844 23.7188 18.6044L14.3755 12.567V12.3753H17.538L24.0063 16.5919C24.15 16.3044 24.2938 16.0169 24.4376 15.7294L19.263 12.3753H23.2875C23.3595 12.0639 23.4313 11.7524 23.4792 11.417H13.4172Z" fill="white"/>
<path d="M24.4378 2.07304C24.1263 1.522 23.7669 0.970955 23.3836 0.491791L14.3752 6.43348V6.62514H17.5378L24.4378 2.07304Z" fill="#F0263C"/>
<path d="M-1.53296 17.0233C-1.2215 17.5743 -0.862121 18.1254 -0.478791 18.6045L8.62537 12.567V12.3754H5.46288L-1.53296 17.0233Z" fill="#F0263C"/>
<path d="M14.3752 12.3754V12.567L23.144 18.2691C23.5513 17.766 23.8867 17.2389 24.1981 16.6879L17.5378 12.3754H14.3752Z" fill="#F0263C"/>
<path d="M23.2397 7.58355H13.4167V7.08041V5.93041V-2.23935C12.7938 -2.35914 12.1469 -2.40706 11.5 -2.40706C10.8532 -2.40706 10.2063 -2.35914 9.58342 -2.23935V7.58355H-0.239518C-0.35931 8.20642 -0.407227 8.8533 -0.407227 9.50017C-0.407227 10.147 -0.35931 10.7939 -0.239518 11.4169H9.58342L9.58335 21.2398C10.2063 21.3356 10.8532 21.4075 11.5 21.4075C12.1469 21.4075 12.7938 21.3595 13.4167 21.2398V11.4169H23.2397C23.3355 10.7939 23.4074 10.147 23.4074 9.50017C23.4074 8.8533 23.3594 8.20642 23.2397 7.58355Z" fill="#F0263C"/>
</g>
</g>
</g>
</g>
<defs>
<clipPath id="clip0_2_531">
<rect width="48" height="48" fill="white"/>
</clipPath>
</defs>
</svg>
