<svg width="48" height="48" viewBox="0 0 48 48" fill="none" xmlns="http://www.w3.org/2000/svg">
<g clip-path="url(#clip0_2_530)">
<mask id="mask0_2_530" style="mask-type:luminance" maskUnits="userSpaceOnUse" x="0" y="0" width="48" height="48">
<path d="M48 24C48 10.7452 37.2548 0 24 0C10.7452 0 0 10.7452 0 24C0 37.2548 10.7452 48 24 48C37.2548 48 48 37.2548 48 24Z" fill="white"/>
</mask>
<g mask="url(#mask0_2_530)">
<path d="M48 24C48 10.7452 37.2548 0 24 0C10.7452 0 0 10.7452 0 24C0 37.2548 10.7452 48 24 48C37.2548 48 48 37.2548 48 24Z" fill="white"/>
<mask id="mask1_2_530" style="mask-type:luminance" maskUnits="userSpaceOnUse" x="0" y="0" width="48" height="48">
<path d="M24 48C37.2548 48 48 37.2548 48 24C48 10.7452 37.2548 0 24 0C10.7452 0 0 10.7452 0 24C0 37.2548 10.7452 48 24 48Z" fill="white"/>
</mask>
<g mask="url(#mask1_2_530)">
<path d="M0 0H48V48H0V0Z" fill="white"/>
<path d="M24 0H0V25.8675H24V0Z" fill="#231D9A"/>
<path d="M15.5034 6.33998L17.3093 4.53406L15.5034 2.72814L13.6975 4.53406L15.5034 6.33998Z" fill="white"/>
<path d="M15.5034 13.6441L17.3093 11.8382L15.5034 10.0322L13.6975 11.8382L15.5034 13.6441Z" fill="white"/>
<path d="M15.5034 20.9481L17.3093 19.1422L15.5034 17.3363L13.6975 19.1422L15.5034 20.9481Z" fill="white"/>
<path d="M5.87132 6.33998L7.67725 4.53406L5.87132 2.72814L4.0654 4.53406L5.87132 6.33998Z" fill="white"/>
<path d="M5.87132 13.6441L7.67725 11.8382L5.87132 10.0322L4.0654 11.8381L5.87132 13.6441Z" fill="white"/>
<path d="M5.87132 20.9481L7.67725 19.1422L5.87132 17.3363L4.0654 19.1422L5.87132 20.9481Z" fill="white"/>
<path d="M20.3191 9.99187L22.125 8.18594L20.3191 6.38002L18.5132 8.18594L20.3191 9.99187Z" fill="white"/>
<path d="M20.3191 2.68849L22.125 0.882568L20.3191 -0.923354L18.5132 0.882569L20.3191 2.68849Z" fill="white"/>
<path d="M20.3191 17.2959L22.125 15.49L20.3191 13.6841L18.5132 15.49L20.3191 17.2959Z" fill="white"/>
<path d="M20.3191 24.6L22.125 22.7941L20.3191 20.9882L18.5132 22.7941L20.3191 24.6Z" fill="white"/>
<path d="M10.687 9.99187L12.4929 8.18594L10.687 6.38002L8.88107 8.18594L10.687 9.99187Z" fill="white"/>
<path d="M10.687 17.2959L12.4929 15.49L10.687 13.6841L8.88107 15.49L10.687 17.2959Z" fill="white"/>
<path d="M10.687 24.6L12.4929 22.7941L10.687 20.9882L8.88107 22.7941L10.687 24.6Z" fill="white"/>
<path d="M1.05565 9.99187L2.86157 8.18594L1.05565 6.38002L-0.750272 8.18594L1.05565 9.99187Z" fill="white"/>
<path d="M1.05565 17.2959L2.86157 15.49L1.05565 13.6841L-0.750273 15.49L1.05565 17.2959Z" fill="white"/>
<path d="M1.05565 24.6L2.86157 22.7941L1.05565 20.9882L-0.750272 22.7941L1.05565 24.6Z" fill="white"/>
<path d="M59.4364 -0.246094H24V3.48406H59.4364V-0.246094Z" fill="#F0263C"/>
<path d="M50.1111 7.21436H24V10.9445H50.1111V7.21436Z" fill="#F0263C"/>
<path d="M50.1111 14.6744H24V18.4046H50.1111V14.6744Z" fill="#F0263C"/>
<path d="M59.4364 22.1349H24V25.865H59.4364V22.1349Z" fill="#F0263C"/>
<path d="M59.2502 29.5953H0.500244V33.3255H59.2502V29.5953Z" fill="#F0263C"/>
<path d="M59.2502 37.0554H0.500244V40.7856H59.2502V37.0554Z" fill="#F0263C"/>
<path d="M59.2502 44.5159H0.500244V48.246H59.2502V44.5159Z" fill="#F0263C"/>
</g>
</g>
</g>
<defs>
<clipPath id="clip0_2_530">
<rect width="48" height="48" fill="white"/>
</clipPath>
</defs>
</svg>
